# xmcd CD database file
# Copyright (C) 1997 Ti Kan
# 
# Track frame offsets:
#     150
#     9642
#     28855
# 
# Disc length: 641 seconds
# 
# Revision: 1
# Processed by: cddbd v1.4b41PL1 Copyright (c) Steve Scherf et al.
# Submitted via: DiscPlay 4.0.4
# 
DISCID=1c027f03
DTITLE=Bill Withers - Solid Gold Classics
DYEAR=1900
DGENRE=
TTITLE0=Ain't no sunshine
TTITLE1=Lovely day
TTITLE2=Lean on me
EXTD=
EXTT0=
EXTT1=
EXTT2=
PLAYORDER=
